<svg xmlns="http://www.w3.org/2000/svg" width="25" height="16" viewBox="0 0 25 16">
  <g id="Group_7" data-name="Group 7" transform="translate(-248 -531)">
    <path id="Polygon_3" data-name="Polygon 3" d="M7.132,1.519a1,1,0,0,1,1.736,0L15.145,12.5a1,1,0,0,1-.868,1.5H1.723a1,1,0,0,1-.868-1.5Z" transform="translate(273 531) rotate(90)" fill="#fff"/>
    <path id="Polygon_4" data-name="Polygon 4" d="M7.132,1.519a1,1,0,0,1,1.736,0L15.145,12.5a1,1,0,0,1-.868,1.5H1.723a1,1,0,0,1-.868-1.5Z" transform="translate(262 531) rotate(90)" fill="#fff"/>
  </g>
</svg>
